<svg xmlns="http://www.w3.org/2000/svg" version="1.1" xmlns:xlink="http://www.w3.org/1999/xlink" xmlns:svgjs="http://svgjs.com/svgjs" width="24.75" height="22.002"><svg xmlns="http://www.w3.org/2000/svg" width="24.75" height="22.002" viewBox="0 0 24.75 22.002">
  <path id="SvgjsPath1000" data-name="Pfad 1" d="M23.336-19.25h-22A1.359,1.359,0,0,0,0-17.914a1.368,1.368,0,0,0,1.336,1.375L1.375-5.5A1.379,1.379,0,0,0,2.75-4.125H11v1.493L7.764.606a.691.691,0,0,0,0,.976l.969.969a.692.692,0,0,0,.977,0L12.375-.116,15,2.548a.692.692,0,0,0,.977,0l.969-.969a.691.691,0,0,0,0-.976L13.75-2.63V-4.123H22A1.379,1.379,0,0,0,23.375-5.5v-11a1.376,1.376,0,0,0,1.375-1.376A1.383,1.383,0,0,0,23.336-19.25ZM20.625-6.875H4.125V-16.5h16.5Z" transform="translate(0 19.25)" fill="#25939f"></path>
</svg><style>@media (prefers-color-scheme: light) { :root { filter: none; } }
</style></svg>